<svg
  xmlns="http://www.w3.org/2000/svg"
  width="350"
  height="180"
  viewBox="0 0 350 180"
>

<rect
  x="0.50"
  y="0.50"
  width="349.00"
  height="179.00"
  rx="6.00"
  fill="#011627"
  stroke="#A6ACCD"
  stroke-width="1.00"
/>

<text
  x="28.00"
  y="37.00"
  fill="#C792EA"
  font-family="Arial, Helvetica, sans-serif"
  font-size="16.00"
  font-weight="600"
>
  Most Used Languages
</text>

<rect
  x="28.00"
  y="54.00"
  width="294.00"
  height="9.00"
  rx="4.50"
  fill="#1B2B3A"
/>

<rect
  x="28.00"
  y="54.00"
  width="93.29"
  height="9.00"
  fill="#ED8B00"
/>

<rect
  x="121.29"
  y="54.00"
  width="82.55"
  height="9.00"
  fill="#777BB4"
/>

<rect
  x="203.84"
  y="54.00"
  width="39.68"
  height="9.00"
  fill="#7FDBCA"
/>

<rect
  x="243.52"
  y="54.00"
  width="37.58"
  height="9.00"
  fill="#6440e3"
/>

<rect
  x="281.10"
  y="54.00"
  width="36.14"
  height="9.00"
  fill="#3178C6"
/>

<rect
  x="317.25"
  y="54.00"
  width="4.75"
  height="9.00"
  fill="#F7DF1E"
/>


<circle
  cx="33.83"
  cy="90.00"
  r="5.00"
  fill="#ED8B00"
/>

<text
  x="49.00"
  y="94.00"
  fill="#82AAFF"
  font-family="Arial, Helvetica, sans-serif"
  font-size="11.00"
>
  Java
</text>

<text
  x="161.00"
  y="94.00"
  fill="#7FDBCA"
  font-family="Arial, Helvetica, sans-serif"
  font-size="11.00"
  text-anchor="end"
>
  31.73%
</text>


<circle
  cx="187.83"
  cy="90.00"
  r="5.00"
  fill="#6440e3"
/>

<text
  x="203.00"
  y="94.00"
  fill="#82AAFF"
  font-family="Arial, Helvetica, sans-serif"
  font-size="11.00"
>
  C#
</text>

<text
  x="322.00"
  y="94.00"
  fill="#7FDBCA"
  font-family="Arial, Helvetica, sans-serif"
  font-size="11.00"
  text-anchor="end"
>
  12.78%
</text>


<circle
  cx="33.83"
  cy="121.00"
  r="5.00"
  fill="#777BB4"
/>

<text
  x="49.00"
  y="125.00"
  fill="#82AAFF"
  font-family="Arial, Helvetica, sans-serif"
  font-size="11.00"
>
  PHP
</text>

<text
  x="161.00"
  y="125.00"
  fill="#7FDBCA"
  font-family="Arial, Helvetica, sans-serif"
  font-size="11.00"
  text-anchor="end"
>
  28.08%
</text>


<circle
  cx="187.83"
  cy="121.00"
  r="5.00"
  fill="#3178C6"
/>

<text
  x="203.00"
  y="125.00"
  fill="#82AAFF"
  font-family="Arial, Helvetica, sans-serif"
  font-size="11.00"
>
  TypeScript
</text>

<text
  x="322.00"
  y="125.00"
  fill="#7FDBCA"
  font-family="Arial, Helvetica, sans-serif"
  font-size="11.00"
  text-anchor="end"
>
  12.29%
</text>


<circle
  cx="33.83"
  cy="152.00"
  r="5.00"
  fill="#7FDBCA"
/>

<text
  x="49.00"
  y="156.00"
  fill="#82AAFF"
  font-family="Arial, Helvetica, sans-serif"
  font-size="11.00"
>
  Blade
</text>

<text
  x="161.00"
  y="156.00"
  fill="#7FDBCA"
  font-family="Arial, Helvetica, sans-serif"
  font-size="11.00"
  text-anchor="end"
>
  13.50%
</text>


<circle
  cx="187.83"
  cy="152.00"
  r="5.00"
  fill="#F7DF1E"
/>

<text
  x="203.00"
  y="156.00"
  fill="#82AAFF"
  font-family="Arial, Helvetica, sans-serif"
  font-size="11.00"
>
  JavaScript
</text>

<text
  x="322.00"
  y="156.00"
  fill="#7FDBCA"
  font-family="Arial, Helvetica, sans-serif"
  font-size="11.00"
  text-anchor="end"
>
  1.62%
</text>

</svg>
