<svg
  xmlns="http://www.w3.org/2000/svg"
  width="350"
  height="180"
  viewBox="0 0 350 180"
>

<rect
  x="0.50"
  y="0.50"
  width="349.00"
  height="179.00"
  rx="6.00"
  fill="#011627"
  stroke="#A6ACCD"
  stroke-width="1.00"
/>

<text
  x="28.00"
  y="37.00"
  fill="#C792EA"
  font-family="Arial, Helvetica, sans-serif"
  font-size="16.00"
  font-weight="600"
>
  Most Used Languages
</text>

<rect
  x="28.00"
  y="54.00"
  width="294.00"
  height="9.00"
  rx="4.50"
  fill="#1B2B3A"
/>

<rect
  x="28.00"
  y="54.00"
  width="107.64"
  height="9.00"
  fill="#ED8B00"
/>

<rect
  x="135.64"
  y="54.00"
  width="95.25"
  height="9.00"
  fill="#777BB4"
/>

<rect
  x="230.90"
  y="54.00"
  width="43.36"
  height="9.00"
  fill="#6440e3"
/>

<rect
  x="274.26"
  y="54.00"
  width="41.71"
  height="9.00"
  fill="#3178C6"
/>

<rect
  x="315.97"
  y="54.00"
  width="5.48"
  height="9.00"
  fill="#F7DF1E"
/>

<rect
  x="321.45"
  y="54.00"
  width="0.55"
  height="9.00"
  fill="#e725f5"
/>


<circle
  cx="33.83"
  cy="90.00"
  r="5.00"
  fill="#ED8B00"
/>

<text
  x="49.00"
  y="94.00"
  fill="#82AAFF"
  font-family="Arial, Helvetica, sans-serif"
  font-size="11.00"
>
  Java
</text>

<text
  x="161.00"
  y="94.00"
  fill="#7FDBCA"
  font-family="Arial, Helvetica, sans-serif"
  font-size="11.00"
  text-anchor="end"
>
  36.61%
</text>


<circle
  cx="187.83"
  cy="90.00"
  r="5.00"
  fill="#3178C6"
/>

<text
  x="203.00"
  y="94.00"
  fill="#82AAFF"
  font-family="Arial, Helvetica, sans-serif"
  font-size="11.00"
>
  TypeScript
</text>

<text
  x="322.00"
  y="94.00"
  fill="#7FDBCA"
  font-family="Arial, Helvetica, sans-serif"
  font-size="11.00"
  text-anchor="end"
>
  14.19%
</text>


<circle
  cx="33.83"
  cy="121.00"
  r="5.00"
  fill="#777BB4"
/>

<text
  x="49.00"
  y="125.00"
  fill="#82AAFF"
  font-family="Arial, Helvetica, sans-serif"
  font-size="11.00"
>
  PHP
</text>

<text
  x="161.00"
  y="125.00"
  fill="#7FDBCA"
  font-family="Arial, Helvetica, sans-serif"
  font-size="11.00"
  text-anchor="end"
>
  32.40%
</text>


<circle
  cx="187.83"
  cy="121.00"
  r="5.00"
  fill="#F7DF1E"
/>

<text
  x="203.00"
  y="125.00"
  fill="#82AAFF"
  font-family="Arial, Helvetica, sans-serif"
  font-size="11.00"
>
  JavaScript
</text>

<text
  x="322.00"
  y="125.00"
  fill="#7FDBCA"
  font-family="Arial, Helvetica, sans-serif"
  font-size="11.00"
  text-anchor="end"
>
  1.86%
</text>


<circle
  cx="33.83"
  cy="152.00"
  r="5.00"
  fill="#6440e3"
/>

<text
  x="49.00"
  y="156.00"
  fill="#82AAFF"
  font-family="Arial, Helvetica, sans-serif"
  font-size="11.00"
>
  C#
</text>

<text
  x="161.00"
  y="156.00"
  fill="#7FDBCA"
  font-family="Arial, Helvetica, sans-serif"
  font-size="11.00"
  text-anchor="end"
>
  14.75%
</text>


<circle
  cx="187.83"
  cy="152.00"
  r="5.00"
  fill="#e725f5"
/>

<text
  x="203.00"
  y="156.00"
  fill="#82AAFF"
  font-family="Arial, Helvetica, sans-serif"
  font-size="11.00"
>
  C++
</text>

<text
  x="322.00"
  y="156.00"
  fill="#7FDBCA"
  font-family="Arial, Helvetica, sans-serif"
  font-size="11.00"
  text-anchor="end"
>
  0.19%
</text>

</svg>
